<svg xmlns="http://www.w3.org/2000/svg" version="1.1" xmlns:xlink="http://www.w3.org/1999/xlink" xmlns:svgjs="http://svgjs.dev/svgjs" width="1500" height="1500" viewBox="0 0 1500 1500"><rect width="1500" height="1500" fill="#000000"></rect><g transform="matrix(0.6666666666666666,0,0,0.6666666666666666,249.39393939393938,438.5856950067477)"><svg viewBox="0 0 396 247" data-background-color="#000000" preserveAspectRatio="xMidYMid meet" height="935" width="1500" xmlns="http://www.w3.org/2000/svg" xmlns:xlink="http://www.w3.org/1999/xlink"><g id="tight-bounds" transform="matrix(1,0,0,1,0.2400000000000091,-0.09999999999999432)"><svg viewBox="0 0 395.52 247.2" height="247.2" width="395.52"><rect width="395.52" height="247.2" fill="#ffffff" mask="url(#18a2279b-b113-499a-adc2-70ee1ab5b04f)" data-fill-palette-color="tertiary"></rect><g><svg></svg></g><g><svg viewBox="0 0 395.52 247.2" height="247.2" width="395.52"><g><path d="M55.039 247.2l36.619-63.427 0 13.071-25.093 43.463h262.39l-25.093-43.463v-13.071l36.619 63.427zM197.76 0l26.403 45.732-7.546 0-18.857-32.662-18.857 32.662-7.546 0z" fill="#ffffff" fill-rule="nonzero" stroke="none" stroke-width="1" stroke-linecap="butt" stroke-linejoin="miter" stroke-miterlimit="10" stroke-dasharray="" stroke-dashoffset="0" font-family="none" font-weight="none" font-size="none" text-anchor="none" style="mix-blend-mode: normal" data-fill-palette-color="tertiary"></path></g><g transform="matrix(1,0,0,1,113.90633309468653,67.97999999999999)"><svg viewBox="0 0 167.70733381062692 111.24" height="111.24" width="167.70733381062692"><g><svg viewBox="0 0 168.54587047968002 111.79619999999998" height="111.24" width="167.70733381062692"><g></g><g transform="matrix(1,0,0,1,103.03787047968001,0.2780999999999949)"><svg viewBox="0 0 65.50800000000001 111.24" height="111.24" width="65.50800000000001"><g id="textblocktransform"><svg viewBox="0 0 65.50800000000001 111.24" height="111.24" width="65.50800000000001" id="textblock"><g><svg viewBox="0 0 65.50800000000001 111.24" height="111.24" width="65.50800000000001"><g transform="matrix(1,0,0,1,0,0)"><svg width="65.50800000000001" viewBox="2.25 -35.45 21.2 36.00000000000001" height="111.24" data-palette-color="url(#8e54c0ed-bd90-499f-af38-b94df9000779)"><g class="wordmark-text-0" data-fill-palette-color="primary" id="text-0"></g></svg></g></svg></g></svg></g></svg></g><g transform="matrix(1,0,0,1,0,44.21658202919986)"><svg viewBox="0 0 40.48394400000001 23.363035941600263" height="23.363035941600263" width="40.48394400000001"><g><svg xmlns="http://www.w3.org/2000/svg" xmlns:xlink="http://www.w3.org/1999/xlink" version="1.1" x="8" y="0" viewBox="0 2.2889999999999997 100.00003478060117 95.42189798916631" enable-background="new 0 0 100 100" xml:space="preserve" id="icon-0" width="24.483944000000008" height="23.363035941600263" class="icon-icon-0" data-fill-palette-color="accent"></svg></g></svg></g></svg></g></svg></g></svg></g><defs></defs><mask id="b07423c5-b91a-42f5-8dfa-f05bf706b362"><g id="SvgjsG2763"><svg viewBox="0 0 395.52 247.2" height="247.2" width="395.52"><g><svg></svg></g><g><svg viewBox="0 0 395.52 247.2" height="247.2" width="395.52"><g><path d="M55.039 247.2l36.619-63.427 0 13.071-25.093 43.463h262.39l-25.093-43.463v-13.071l36.619 63.427zM197.76 0l26.403 45.732-7.546 0-18.857-32.662-18.857 32.662-7.546 0z" fill="black" fill-rule="nonzero" stroke="none" stroke-width="1" stroke-linecap="butt" stroke-linejoin="miter" stroke-miterlimit="10" stroke-dasharray="" stroke-dashoffset="0" font-family="none" font-weight="none" font-size="none" text-anchor="none" style="mix-blend-mode: normal"></path></g><g transform="matrix(1,0,0,1,113.90633309468653,67.97999999999999)"><svg viewBox="0 0 167.70733381062692 111.24" height="111.24" width="167.70733381062692"><g><svg viewBox="0 0 168.54587047968002 111.79619999999998" height="111.24" width="167.70733381062692"><g><rect width="10.031737999679999" height="111.79619999999998" x="66.74503824000001" y="0" fill="black" opacity="1" stroke-width="0" stroke="transparent" fill-opacity="1" class="rect-yte-0" rx="1%" id="SvgjsRect2762" data-palette-color="url(#58a108ff-76a8-496b-b7b4-94054b5292ff)"></rect></g><g transform="matrix(1,0,0,1,103.03787047968001,0.2780999999999949)"><svg viewBox="0 0 65.50800000000001 111.24" height="111.24" width="65.50800000000001"><g id="SvgjsG2761"><svg viewBox="0 0 65.50800000000001 111.24" height="111.24" width="65.50800000000001" id="SvgjsSvg2760"><g><svg viewBox="0 0 65.50800000000001 111.24" height="111.24" width="65.50800000000001"><g transform="matrix(1,0,0,1,0,0)"><svg width="65.50800000000001" viewBox="2.25 -35.45 21.2 36.00000000000001" height="111.24" data-palette-color="url(#8e54c0ed-bd90-499f-af38-b94df9000779)"><g class="wordmark-text-0" data-fill-palette-color="primary" id="SvgjsG2759"><path d="M12.7 0.55L12.7 0.55Q9.03 0.55 6.28-0.68 3.53-1.9 2.25-3.25L2.25-3.25 4.8-8.5Q5.33-7.83 6.46-6.98 7.6-6.13 9.11-5.49 10.63-4.85 12.25-4.85L12.25-4.85Q14.13-4.85 15.51-5.9 16.9-6.95 16.9-9L16.9-9Q16.9-11.03 15.46-12.21 14.03-13.4 11.55-14.9L11.55-14.9Q9.53-16.13 7.58-17.51 5.63-18.9 4.34-20.91 3.05-22.93 3.05-26L3.05-26Q3.05-30.13 5.69-32.79 8.33-35.45 13.35-35.45L13.35-35.45Q15.9-35.45 17.69-34.85 19.48-34.25 20.59-33.48 21.7-32.7 22.25-32.2L22.25-32.2 19.45-27.1Q19.1-27.6 18.28-28.33 17.45-29.05 16.25-29.6 15.05-30.15 13.6-30.15L13.6-30.15Q11.58-30.15 10.56-28.99 9.55-27.83 9.55-26.25L9.55-26.25Q9.55-24.23 11.04-22.95 12.53-21.68 14.65-20.4L14.65-20.4Q17-19 19-17.59 21-16.18 22.23-14.21 23.45-12.25 23.45-9.2L23.45-9.2Q23.45-4.63 20.58-2.04 17.7 0.55 12.7 0.55Z" fill="white"></path></g></svg></g></svg></g></svg></g></svg></g><g transform="matrix(1,0,0,1,0,44.21658202919986)"><svg viewBox="0 0 40.48394400000001 23.363035941600263" height="23.363035941600263" width="40.48394400000001"><g><svg xmlns="http://www.w3.org/2000/svg" xmlns:xlink="http://www.w3.org/1999/xlink" version="1.1" x="8" y="0" viewBox="0 2.2889999999999997 100.00003478060117 95.42189798916631" enable-background="new 0 0 100 100" xml:space="preserve" id="SvgjsSvg2758" width="24.483944000000008" height="23.363035941600263" class="icon-icon-0" data-fill-palette-color="accent"><g fill="black"><path d="M99.279 18.508L83.756 2.982C82.833 2.058 81.198 2.058 80.276 2.982L70.62 12.641C69.864 10.041 67.49 8.125 64.652 8.125H6.243A6.25 6.25 0 0 0 0 14.37V60.892A6.25 6.25 0 0 0 6.243 67.135H16.259L13.254 70.141C13.244 70.15 13.235 70.162 13.225 70.17L13.17 70.225C13.092 70.302 13.032 70.389 12.968 70.473A2.4 2.4 0 0 0 12.759 70.793 2.4 2.4 0 0 0 12.613 71.097C12.601 71.128 12.58 71.155 12.57 71.187L4.807 94.471A2.464 2.464 0 0 0 7.92 97.586L31.207 89.824C31.228 89.817 31.246 89.803 31.268 89.795 31.435 89.734 31.597 89.658 31.748 89.563 31.758 89.557 31.768 89.554 31.777 89.548 31.919 89.455 32.051 89.35 32.172 89.23L54.26 67.136H64.652C68.094 67.136 70.893 64.336 70.893 60.893V50.498L85.902 35.487C86.049 35.339 86.169 35.17 86.272 34.993L99.28 21.987A2.46 2.46 0 0 0 99.279 18.508M65.971 60.893C65.971 61.622 65.379 62.214 64.652 62.214H59.182L65.971 55.422zM68.494 21.848L72.937 26.29 22.833 76.408 18.391 71.967zM4.921 60.893V14.37C4.921 13.641 5.513 13.049 6.242 13.049H64.651A1.32 1.32 0 0 1 65.97 14.37V17.318L21.174 62.214H6.243A1.323 1.323 0 0 1 4.921 60.893M11.033 91.359L15.979 76.52 25.872 86.413zM66.693 47.738S66.691 47.738 66.691 47.74L64.021 50.411 30.431 84.008 26.312 79.888 76.418 29.77 80.539 33.89zM84.1 30.205L72.055 18.166 82.016 8.204 94.059 20.247z" fill="black"></path><path d="M22.885 27.229C22.885 26.577 22.626 25.952 22.164 25.489L16.247 19.573A2.462 2.462 0 0 0 12.767 23.055L16.943 27.229 12.767 31.405A2.46 2.46 0 0 0 12.767 34.885 2.455 2.455 0 0 0 16.247 34.886L22.164 28.97A2.46 2.46 0 0 0 22.885 27.229" fill="black"></path><path d="M26.482 35.606H33.53A2.461 2.461 0 0 0 33.53 30.683H26.482A2.462 2.462 0 0 0 26.482 35.606" fill="black"></path></g></svg></g></svg></g></svg></g></svg></g></svg></g><defs><mask></mask></defs></svg><rect width="395.52" height="247.2" fill="black" stroke="none" visibility="hidden"></rect></g></mask><linearGradient x1="0.054" x2="0.941" y1="0.5" y2="0.5" id="8e54c0ed-bd90-499f-af38-b94df9000779"><stop stop-color="#eaa79c" offset="0"></stop><stop stop-color="#f2e8cb" offset="0.498"></stop><stop stop-color="#eaa79c" offset="1"></stop></linearGradient><rect width="395.52" height="247.2" fill="#ffffff" mask="url(#b07423c5-b91a-42f5-8dfa-f05bf706b362)" data-fill-palette-color="primary"></rect><mask id="93743488-7cc1-486f-a74c-496daeca3a66"><g id="SvgjsG2775"><svg viewBox="0 0 395.52 247.2" height="247.2" width="395.52"><g><svg></svg></g><g><svg viewBox="0 0 395.52 247.2" height="247.2" width="395.52"><g><path d="M55.039 247.2l36.619-63.427 0 13.071-25.093 43.463h262.39l-25.093-43.463v-13.071l36.619 63.427zM197.76 0l26.403 45.732-7.546 0-18.857-32.662-18.857 32.662-7.546 0z" fill="black" fill-rule="nonzero" stroke="none" stroke-width="1" stroke-linecap="butt" stroke-linejoin="miter" stroke-miterlimit="10" stroke-dasharray="" stroke-dashoffset="0" font-family="none" font-weight="none" font-size="none" text-anchor="none" style="mix-blend-mode: normal"></path></g><g transform="matrix(1,0,0,1,113.90633309468653,67.97999999999999)"><svg viewBox="0 0 167.70733381062692 111.24" height="111.24" width="167.70733381062692"><g><svg viewBox="0 0 168.54587047968002 111.79619999999998" height="111.24" width="167.70733381062692"><g><rect width="10.031737999679999" height="111.79619999999998" x="66.74503824000001" y="0" fill="white" opacity="1" stroke-width="0" stroke="transparent" fill-opacity="1" class="rect-yte-0" rx="1%" id="SvgjsRect2774" data-palette-color="url(#58a108ff-76a8-496b-b7b4-94054b5292ff)"></rect></g><g transform="matrix(1,0,0,1,103.03787047968001,0.2780999999999949)"><svg viewBox="0 0 65.50800000000001 111.24" height="111.24" width="65.50800000000001"><g id="SvgjsG2773"><svg viewBox="0 0 65.50800000000001 111.24" height="111.24" width="65.50800000000001" id="SvgjsSvg2772"><g><svg viewBox="0 0 65.50800000000001 111.24" height="111.24" width="65.50800000000001"><g transform="matrix(1,0,0,1,0,0)"><svg width="65.50800000000001" viewBox="2.25 -35.45 21.2 36.00000000000001" height="111.24" data-palette-color="url(#8e54c0ed-bd90-499f-af38-b94df9000779)"><g class="wordmark-text-0" data-fill-palette-color="primary" id="SvgjsG2771"></g></svg></g></svg></g></svg></g></svg></g><g transform="matrix(1,0,0,1,0,44.21658202919986)"><svg viewBox="0 0 40.48394400000001 23.363035941600263" height="23.363035941600263" width="40.48394400000001"><g><svg xmlns="http://www.w3.org/2000/svg" xmlns:xlink="http://www.w3.org/1999/xlink" version="1.1" x="8" y="0" viewBox="0 2.2889999999999997 100.00003478060117 95.42189798916631" enable-background="new 0 0 100 100" xml:space="preserve" id="SvgjsSvg2770" width="24.483944000000008" height="23.363035941600263" class="icon-icon-0" data-fill-palette-color="accent"><g fill="black"><path d="M99.279 18.508L83.756 2.982C82.833 2.058 81.198 2.058 80.276 2.982L70.62 12.641C69.864 10.041 67.49 8.125 64.652 8.125H6.243A6.25 6.25 0 0 0 0 14.37V60.892A6.25 6.25 0 0 0 6.243 67.135H16.259L13.254 70.141C13.244 70.15 13.235 70.162 13.225 70.17L13.17 70.225C13.092 70.302 13.032 70.389 12.968 70.473A2.4 2.4 0 0 0 12.759 70.793 2.4 2.4 0 0 0 12.613 71.097C12.601 71.128 12.58 71.155 12.57 71.187L4.807 94.471A2.464 2.464 0 0 0 7.92 97.586L31.207 89.824C31.228 89.817 31.246 89.803 31.268 89.795 31.435 89.734 31.597 89.658 31.748 89.563 31.758 89.557 31.768 89.554 31.777 89.548 31.919 89.455 32.051 89.35 32.172 89.23L54.26 67.136H64.652C68.094 67.136 70.893 64.336 70.893 60.893V50.498L85.902 35.487C86.049 35.339 86.169 35.17 86.272 34.993L99.28 21.987A2.46 2.46 0 0 0 99.279 18.508M65.971 60.893C65.971 61.622 65.379 62.214 64.652 62.214H59.182L65.971 55.422zM68.494 21.848L72.937 26.29 22.833 76.408 18.391 71.967zM4.921 60.893V14.37C4.921 13.641 5.513 13.049 6.242 13.049H64.651A1.32 1.32 0 0 1 65.97 14.37V17.318L21.174 62.214H6.243A1.323 1.323 0 0 1 4.921 60.893M11.033 91.359L15.979 76.52 25.872 86.413zM66.693 47.738S66.691 47.738 66.691 47.74L64.021 50.411 30.431 84.008 26.312 79.888 76.418 29.77 80.539 33.89zM84.1 30.205L72.055 18.166 82.016 8.204 94.059 20.247z" fill="black"></path><path d="M22.885 27.229C22.885 26.577 22.626 25.952 22.164 25.489L16.247 19.573A2.462 2.462 0 0 0 12.767 23.055L16.943 27.229 12.767 31.405A2.46 2.46 0 0 0 12.767 34.885 2.455 2.455 0 0 0 16.247 34.886L22.164 28.97A2.46 2.46 0 0 0 22.885 27.229" fill="black"></path><path d="M26.482 35.606H33.53A2.461 2.461 0 0 0 33.53 30.683H26.482A2.462 2.462 0 0 0 26.482 35.606" fill="black"></path></g></svg></g></svg></g></svg></g></svg></g></svg></g><defs><mask></mask></defs><mask><g id="SvgjsG2769"><svg viewBox="0 0 395.52 247.2" height="247.2" width="395.52"><g><svg></svg></g><g><svg viewBox="0 0 395.52 247.2" height="247.2" width="395.52"><g><path d="M55.039 247.2l36.619-63.427 0 13.071-25.093 43.463h262.39l-25.093-43.463v-13.071l36.619 63.427zM197.76 0l26.403 45.732-7.546 0-18.857-32.662-18.857 32.662-7.546 0z" fill="black" fill-rule="nonzero" stroke="none" stroke-width="1" stroke-linecap="butt" stroke-linejoin="miter" stroke-miterlimit="10" stroke-dasharray="" stroke-dashoffset="0" font-family="none" font-weight="none" font-size="none" text-anchor="none" style="mix-blend-mode: normal"></path></g><g transform="matrix(1,0,0,1,113.90633309468653,67.97999999999999)"><svg viewBox="0 0 167.70733381062692 111.24" height="111.24" width="167.70733381062692"><g><svg viewBox="0 0 168.54587047968002 111.79619999999998" height="111.24" width="167.70733381062692"><g><rect width="10.031737999679999" height="111.79619999999998" x="66.74503824000001" y="0" fill="black" opacity="1" stroke-width="0" stroke="transparent" fill-opacity="1" class="rect-yte-0" rx="1%" id="SvgjsRect2768" data-palette-color="url(#58a108ff-76a8-496b-b7b4-94054b5292ff)"></rect></g><g transform="matrix(1,0,0,1,103.03787047968001,0.2780999999999949)"><svg viewBox="0 0 65.50800000000001 111.24" height="111.24" width="65.50800000000001"><g id="SvgjsG2767"><svg viewBox="0 0 65.50800000000001 111.24" height="111.24" width="65.50800000000001" id="SvgjsSvg2766"><g><svg viewBox="0 0 65.50800000000001 111.24" height="111.24" width="65.50800000000001"><g transform="matrix(1,0,0,1,0,0)"><svg width="65.50800000000001" viewBox="2.25 -35.45 21.2 36.00000000000001" height="111.24" data-palette-color="url(#8e54c0ed-bd90-499f-af38-b94df9000779)"><g class="wordmark-text-0" data-fill-palette-color="primary" id="SvgjsG2765"><path d="M12.7 0.55L12.7 0.55Q9.03 0.55 6.28-0.68 3.53-1.9 2.25-3.25L2.25-3.25 4.8-8.5Q5.33-7.83 6.46-6.98 7.6-6.13 9.11-5.49 10.63-4.85 12.25-4.85L12.25-4.85Q14.13-4.85 15.51-5.9 16.9-6.95 16.9-9L16.9-9Q16.9-11.03 15.46-12.21 14.03-13.4 11.55-14.9L11.55-14.9Q9.53-16.13 7.58-17.51 5.63-18.9 4.34-20.91 3.05-22.93 3.05-26L3.05-26Q3.05-30.13 5.69-32.79 8.33-35.45 13.35-35.45L13.35-35.45Q15.9-35.45 17.69-34.85 19.48-34.25 20.59-33.48 21.7-32.7 22.25-32.2L22.25-32.2 19.45-27.1Q19.1-27.6 18.28-28.33 17.45-29.05 16.25-29.6 15.05-30.15 13.6-30.15L13.6-30.15Q11.58-30.15 10.56-28.99 9.55-27.83 9.55-26.25L9.55-26.25Q9.55-24.23 11.04-22.95 12.53-21.68 14.65-20.4L14.65-20.4Q17-19 19-17.59 21-16.18 22.23-14.21 23.45-12.25 23.45-9.2L23.45-9.2Q23.45-4.63 20.58-2.04 17.7 0.55 12.7 0.55Z" fill="black"></path></g></svg></g></svg></g></svg></g></svg></g><g transform="matrix(1,0,0,1,0,44.21658202919986)"><svg viewBox="0 0 40.48394400000001 23.363035941600263" height="23.363035941600263" width="40.48394400000001"><g><svg xmlns="http://www.w3.org/2000/svg" xmlns:xlink="http://www.w3.org/1999/xlink" version="1.1" x="8" y="0" viewBox="0 2.2889999999999997 100.00003478060117 95.42189798916631" enable-background="new 0 0 100 100" xml:space="preserve" id="SvgjsSvg2764" width="24.483944000000008" height="23.363035941600263" class="icon-icon-0" data-fill-palette-color="accent"><g fill="black"><path d="M99.279 18.508L83.756 2.982C82.833 2.058 81.198 2.058 80.276 2.982L70.62 12.641C69.864 10.041 67.49 8.125 64.652 8.125H6.243A6.25 6.25 0 0 0 0 14.37V60.892A6.25 6.25 0 0 0 6.243 67.135H16.259L13.254 70.141C13.244 70.15 13.235 70.162 13.225 70.17L13.17 70.225C13.092 70.302 13.032 70.389 12.968 70.473A2.4 2.4 0 0 0 12.759 70.793 2.4 2.4 0 0 0 12.613 71.097C12.601 71.128 12.58 71.155 12.57 71.187L4.807 94.471A2.464 2.464 0 0 0 7.92 97.586L31.207 89.824C31.228 89.817 31.246 89.803 31.268 89.795 31.435 89.734 31.597 89.658 31.748 89.563 31.758 89.557 31.768 89.554 31.777 89.548 31.919 89.455 32.051 89.35 32.172 89.23L54.26 67.136H64.652C68.094 67.136 70.893 64.336 70.893 60.893V50.498L85.902 35.487C86.049 35.339 86.169 35.17 86.272 34.993L99.28 21.987A2.46 2.46 0 0 0 99.279 18.508M65.971 60.893C65.971 61.622 65.379 62.214 64.652 62.214H59.182L65.971 55.422zM68.494 21.848L72.937 26.29 22.833 76.408 18.391 71.967zM4.921 60.893V14.37C4.921 13.641 5.513 13.049 6.242 13.049H64.651A1.32 1.32 0 0 1 65.97 14.37V17.318L21.174 62.214H6.243A1.323 1.323 0 0 1 4.921 60.893M11.033 91.359L15.979 76.52 25.872 86.413zM66.693 47.738S66.691 47.738 66.691 47.74L64.021 50.411 30.431 84.008 26.312 79.888 76.418 29.77 80.539 33.89zM84.1 30.205L72.055 18.166 82.016 8.204 94.059 20.247z" fill="black"></path><path d="M22.885 27.229C22.885 26.577 22.626 25.952 22.164 25.489L16.247 19.573A2.462 2.462 0 0 0 12.767 23.055L16.943 27.229 12.767 31.405A2.46 2.46 0 0 0 12.767 34.885 2.455 2.455 0 0 0 16.247 34.886L22.164 28.97A2.46 2.46 0 0 0 22.885 27.229" fill="black"></path><path d="M26.482 35.606H33.53A2.461 2.461 0 0 0 33.53 30.683H26.482A2.462 2.462 0 0 0 26.482 35.606" fill="black"></path></g></svg></g></svg></g></svg></g></svg></g></svg></g><defs><mask></mask></defs></svg><rect width="395.52" height="247.2" fill="black" stroke="none" visibility="hidden"></rect></g></mask></svg><rect width="395.52" height="247.2" fill="black" stroke="none" visibility="hidden"></rect></g></mask><linearGradient x1="0.054" x2="0.941" y1="0.5" y2="0.5" id="58a108ff-76a8-496b-b7b4-94054b5292ff"><stop stop-color="#eaa79c" offset="0"></stop><stop stop-color="#f2e8cb" offset="0.498"></stop><stop stop-color="#eaa79c" offset="1"></stop></linearGradient><rect width="395.52" height="247.2" fill="#ffffff" mask="url(#93743488-7cc1-486f-a74c-496daeca3a66)" data-fill-palette-color="secondary"></rect><mask id="04307b20-e005-484e-8c3c-f7b45e5e63af"><g id="SvgjsG2798"><svg viewBox="0 0 395.52 247.2" height="247.2" width="395.52"><g><svg></svg></g><g><svg viewBox="0 0 395.52 247.2" height="247.2" width="395.52"><g><path d="M55.039 247.2l36.619-63.427 0 13.071-25.093 43.463h262.39l-25.093-43.463v-13.071l36.619 63.427zM197.76 0l26.403 45.732-7.546 0-18.857-32.662-18.857 32.662-7.546 0z" fill="black" fill-rule="nonzero" stroke="none" stroke-width="1" stroke-linecap="butt" stroke-linejoin="miter" stroke-miterlimit="10" stroke-dasharray="" stroke-dashoffset="0" font-family="none" font-weight="none" font-size="none" text-anchor="none" style="mix-blend-mode: normal"></path></g><g transform="matrix(1,0,0,1,113.90633309468653,67.97999999999999)"><svg viewBox="0 0 167.70733381062692 111.24" height="111.24" width="167.70733381062692"><g><svg viewBox="0 0 168.54587047968002 111.79619999999998" height="111.24" width="167.70733381062692"><g></g><g transform="matrix(1,0,0,1,103.03787047968001,0.2780999999999949)"><svg viewBox="0 0 65.50800000000001 111.24" height="111.24" width="65.50800000000001"><g id="SvgjsG2797"><svg viewBox="0 0 65.50800000000001 111.24" height="111.24" width="65.50800000000001" id="SvgjsSvg2796"><g><svg viewBox="0 0 65.50800000000001 111.24" height="111.24" width="65.50800000000001"><g transform="matrix(1,0,0,1,0,0)"><svg width="65.50800000000001" viewBox="2.25 -35.45 21.2 36.00000000000001" height="111.24" data-palette-color="url(#8e54c0ed-bd90-499f-af38-b94df9000779)"><g class="wordmark-text-0" data-fill-palette-color="primary" id="SvgjsG2795"></g></svg></g></svg></g></svg></g></svg></g><g transform="matrix(1,0,0,1,0,44.21658202919986)"><svg viewBox="0 0 40.48394400000001 23.363035941600263" height="23.363035941600263" width="40.48394400000001"><g><svg xmlns="http://www.w3.org/2000/svg" xmlns:xlink="http://www.w3.org/1999/xlink" version="1.1" x="8" y="0" viewBox="0 2.2889999999999997 100.00003478060117 95.42189798916631" enable-background="new 0 0 100 100" xml:space="preserve" id="SvgjsSvg2794" width="24.483944000000008" height="23.363035941600263" class="icon-icon-0" data-fill-palette-color="accent"><g fill="white"><path d="M99.279 18.508L83.756 2.982C82.833 2.058 81.198 2.058 80.276 2.982L70.62 12.641C69.864 10.041 67.49 8.125 64.652 8.125H6.243A6.25 6.25 0 0 0 0 14.37V60.892A6.25 6.25 0 0 0 6.243 67.135H16.259L13.254 70.141C13.244 70.15 13.235 70.162 13.225 70.17L13.17 70.225C13.092 70.302 13.032 70.389 12.968 70.473A2.4 2.4 0 0 0 12.759 70.793 2.4 2.4 0 0 0 12.613 71.097C12.601 71.128 12.58 71.155 12.57 71.187L4.807 94.471A2.464 2.464 0 0 0 7.92 97.586L31.207 89.824C31.228 89.817 31.246 89.803 31.268 89.795 31.435 89.734 31.597 89.658 31.748 89.563 31.758 89.557 31.768 89.554 31.777 89.548 31.919 89.455 32.051 89.35 32.172 89.23L54.26 67.136H64.652C68.094 67.136 70.893 64.336 70.893 60.893V50.498L85.902 35.487C86.049 35.339 86.169 35.17 86.272 34.993L99.28 21.987A2.46 2.46 0 0 0 99.279 18.508M65.971 60.893C65.971 61.622 65.379 62.214 64.652 62.214H59.182L65.971 55.422zM68.494 21.848L72.937 26.29 22.833 76.408 18.391 71.967zM4.921 60.893V14.37C4.921 13.641 5.513 13.049 6.242 13.049H64.651A1.32 1.32 0 0 1 65.97 14.37V17.318L21.174 62.214H6.243A1.323 1.323 0 0 1 4.921 60.893M11.033 91.359L15.979 76.52 25.872 86.413zM66.693 47.738S66.691 47.738 66.691 47.74L64.021 50.411 30.431 84.008 26.312 79.888 76.418 29.77 80.539 33.89zM84.1 30.205L72.055 18.166 82.016 8.204 94.059 20.247z" fill="white"></path><path d="M22.885 27.229C22.885 26.577 22.626 25.952 22.164 25.489L16.247 19.573A2.462 2.462 0 0 0 12.767 23.055L16.943 27.229 12.767 31.405A2.46 2.46 0 0 0 12.767 34.885 2.455 2.455 0 0 0 16.247 34.886L22.164 28.97A2.46 2.46 0 0 0 22.885 27.229" fill="white"></path><path d="M26.482 35.606H33.53A2.461 2.461 0 0 0 33.53 30.683H26.482A2.462 2.462 0 0 0 26.482 35.606" fill="white"></path></g></svg></g></svg></g></svg></g></svg></g></svg></g><defs><mask></mask></defs><mask><g id="SvgjsG2793"><svg viewBox="0 0 395.52 247.2" height="247.2" width="395.52"><g><svg></svg></g><g><svg viewBox="0 0 395.52 247.2" height="247.2" width="395.52"><g><path d="M55.039 247.2l36.619-63.427 0 13.071-25.093 43.463h262.39l-25.093-43.463v-13.071l36.619 63.427zM197.76 0l26.403 45.732-7.546 0-18.857-32.662-18.857 32.662-7.546 0z" fill="black" fill-rule="nonzero" stroke="none" stroke-width="1" stroke-linecap="butt" stroke-linejoin="miter" stroke-miterlimit="10" stroke-dasharray="" stroke-dashoffset="0" font-family="none" font-weight="none" font-size="none" text-anchor="none" style="mix-blend-mode: normal"></path></g><g transform="matrix(1,0,0,1,113.90633309468653,67.97999999999999)"><svg viewBox="0 0 167.70733381062692 111.24" height="111.24" width="167.70733381062692"><g><svg viewBox="0 0 168.54587047968002 111.79619999999998" height="111.24" width="167.70733381062692"><g><rect width="10.031737999679999" height="111.79619999999998" x="66.74503824000001" y="0" fill="black" opacity="1" stroke-width="0" stroke="transparent" fill-opacity="1" class="rect-yte-0" rx="1%" id="SvgjsRect2792" data-palette-color="url(#58a108ff-76a8-496b-b7b4-94054b5292ff)"></rect></g><g transform="matrix(1,0,0,1,103.03787047968001,0.2780999999999949)"><svg viewBox="0 0 65.50800000000001 111.24" height="111.24" width="65.50800000000001"><g id="SvgjsG2791"><svg viewBox="0 0 65.50800000000001 111.24" height="111.24" width="65.50800000000001" id="SvgjsSvg2790"><g><svg viewBox="0 0 65.50800000000001 111.24" height="111.24" width="65.50800000000001"><g transform="matrix(1,0,0,1,0,0)"><svg width="65.50800000000001" viewBox="2.25 -35.45 21.2 36.00000000000001" height="111.24" data-palette-color="url(#8e54c0ed-bd90-499f-af38-b94df9000779)"><g class="wordmark-text-0" data-fill-palette-color="primary" id="SvgjsG2789"><path d="M12.7 0.55L12.7 0.55Q9.03 0.55 6.28-0.68 3.53-1.9 2.25-3.25L2.25-3.25 4.8-8.5Q5.33-7.83 6.46-6.98 7.6-6.13 9.11-5.49 10.63-4.85 12.25-4.85L12.25-4.85Q14.13-4.85 15.51-5.9 16.9-6.95 16.9-9L16.9-9Q16.9-11.03 15.46-12.21 14.03-13.4 11.55-14.9L11.55-14.9Q9.53-16.13 7.58-17.51 5.63-18.9 4.34-20.91 3.05-22.93 3.05-26L3.05-26Q3.05-30.13 5.69-32.79 8.33-35.45 13.35-35.45L13.35-35.45Q15.9-35.45 17.69-34.85 19.48-34.25 20.59-33.48 21.7-32.7 22.25-32.2L22.25-32.2 19.45-27.1Q19.1-27.6 18.28-28.33 17.45-29.05 16.25-29.6 15.05-30.15 13.6-30.15L13.6-30.15Q11.58-30.15 10.56-28.99 9.55-27.83 9.55-26.25L9.55-26.25Q9.55-24.23 11.04-22.95 12.53-21.68 14.65-20.4L14.65-20.4Q17-19 19-17.59 21-16.18 22.23-14.21 23.45-12.25 23.45-9.2L23.45-9.2Q23.45-4.63 20.58-2.04 17.7 0.55 12.7 0.55Z" fill="black"></path></g></svg></g></svg></g></svg></g></svg></g><g transform="matrix(1,0,0,1,0,44.21658202919986)"><svg viewBox="0 0 40.48394400000001 23.363035941600263" height="23.363035941600263" width="40.48394400000001"><g><svg xmlns="http://www.w3.org/2000/svg" xmlns:xlink="http://www.w3.org/1999/xlink" version="1.1" x="8" y="0" viewBox="0 2.2889999999999997 100.00003478060117 95.42189798916631" enable-background="new 0 0 100 100" xml:space="preserve" id="SvgjsSvg2788" width="24.483944000000008" height="23.363035941600263" class="icon-icon-0" data-fill-palette-color="accent"><g fill="black"><path d="M99.279 18.508L83.756 2.982C82.833 2.058 81.198 2.058 80.276 2.982L70.62 12.641C69.864 10.041 67.49 8.125 64.652 8.125H6.243A6.25 6.25 0 0 0 0 14.37V60.892A6.25 6.25 0 0 0 6.243 67.135H16.259L13.254 70.141C13.244 70.15 13.235 70.162 13.225 70.17L13.17 70.225C13.092 70.302 13.032 70.389 12.968 70.473A2.4 2.4 0 0 0 12.759 70.793 2.4 2.4 0 0 0 12.613 71.097C12.601 71.128 12.58 71.155 12.57 71.187L4.807 94.471A2.464 2.464 0 0 0 7.92 97.586L31.207 89.824C31.228 89.817 31.246 89.803 31.268 89.795 31.435 89.734 31.597 89.658 31.748 89.563 31.758 89.557 31.768 89.554 31.777 89.548 31.919 89.455 32.051 89.35 32.172 89.23L54.26 67.136H64.652C68.094 67.136 70.893 64.336 70.893 60.893V50.498L85.902 35.487C86.049 35.339 86.169 35.17 86.272 34.993L99.28 21.987A2.46 2.46 0 0 0 99.279 18.508M65.971 60.893C65.971 61.622 65.379 62.214 64.652 62.214H59.182L65.971 55.422zM68.494 21.848L72.937 26.29 22.833 76.408 18.391 71.967zM4.921 60.893V14.37C4.921 13.641 5.513 13.049 6.242 13.049H64.651A1.32 1.32 0 0 1 65.97 14.37V17.318L21.174 62.214H6.243A1.323 1.323 0 0 1 4.921 60.893M11.033 91.359L15.979 76.52 25.872 86.413zM66.693 47.738S66.691 47.738 66.691 47.74L64.021 50.411 30.431 84.008 26.312 79.888 76.418 29.77 80.539 33.89zM84.1 30.205L72.055 18.166 82.016 8.204 94.059 20.247z" fill="black"></path><path d="M22.885 27.229C22.885 26.577 22.626 25.952 22.164 25.489L16.247 19.573A2.462 2.462 0 0 0 12.767 23.055L16.943 27.229 12.767 31.405A2.46 2.46 0 0 0 12.767 34.885 2.455 2.455 0 0 0 16.247 34.886L22.164 28.97A2.46 2.46 0 0 0 22.885 27.229" fill="black"></path><path d="M26.482 35.606H33.53A2.461 2.461 0 0 0 33.53 30.683H26.482A2.462 2.462 0 0 0 26.482 35.606" fill="black"></path></g></svg></g></svg></g></svg></g></svg></g></svg></g><defs><mask></mask></defs></svg><rect width="395.52" height="247.2" fill="black" stroke="none" visibility="hidden"></rect></g></mask><mask><g id="SvgjsG2787"><svg viewBox="0 0 395.52 247.2" height="247.2" width="395.52"><g><svg></svg></g><g><svg viewBox="0 0 395.52 247.2" height="247.2" width="395.52"><g><path d="M55.039 247.2l36.619-63.427 0 13.071-25.093 43.463h262.39l-25.093-43.463v-13.071l36.619 63.427zM197.76 0l26.403 45.732-7.546 0-18.857-32.662-18.857 32.662-7.546 0z" fill="black" fill-rule="nonzero" stroke="none" stroke-width="1" stroke-linecap="butt" stroke-linejoin="miter" stroke-miterlimit="10" stroke-dasharray="" stroke-dashoffset="0" font-family="none" font-weight="none" font-size="none" text-anchor="none" style="mix-blend-mode: normal"></path></g><g transform="matrix(1,0,0,1,113.90633309468653,67.97999999999999)"><svg viewBox="0 0 167.70733381062692 111.24" height="111.24" width="167.70733381062692"><g><svg viewBox="0 0 168.54587047968002 111.79619999999998" height="111.24" width="167.70733381062692"><g><rect width="10.031737999679999" height="111.79619999999998" x="66.74503824000001" y="0" fill="black" opacity="1" stroke-width="0" stroke="transparent" fill-opacity="1" class="rect-yte-0" rx="1%" id="SvgjsRect2786" data-palette-color="url(#58a108ff-76a8-496b-b7b4-94054b5292ff)"></rect></g><g transform="matrix(1,0,0,1,103.03787047968001,0.2780999999999949)"><svg viewBox="0 0 65.50800000000001 111.24" height="111.24" width="65.50800000000001"><g id="SvgjsG2785"><svg viewBox="0 0 65.50800000000001 111.24" height="111.24" width="65.50800000000001" id="SvgjsSvg2784"><g><svg viewBox="0 0 65.50800000000001 111.24" height="111.24" width="65.50800000000001"><g transform="matrix(1,0,0,1,0,0)"><svg width="65.50800000000001" viewBox="2.25 -35.45 21.2 36.00000000000001" height="111.24" data-palette-color="url(#8e54c0ed-bd90-499f-af38-b94df9000779)"><g class="wordmark-text-0" data-fill-palette-color="primary" id="SvgjsG2783"></g></svg></g></svg></g></svg></g></svg></g><g transform="matrix(1,0,0,1,0,44.21658202919986)"><svg viewBox="0 0 40.48394400000001 23.363035941600263" height="23.363035941600263" width="40.48394400000001"><g><svg xmlns="http://www.w3.org/2000/svg" xmlns:xlink="http://www.w3.org/1999/xlink" version="1.1" x="8" y="0" viewBox="0 2.2889999999999997 100.00003478060117 95.42189798916631" enable-background="new 0 0 100 100" xml:space="preserve" id="SvgjsSvg2782" width="24.483944000000008" height="23.363035941600263" class="icon-icon-0" data-fill-palette-color="accent"><g fill="black"><path d="M99.279 18.508L83.756 2.982C82.833 2.058 81.198 2.058 80.276 2.982L70.62 12.641C69.864 10.041 67.49 8.125 64.652 8.125H6.243A6.25 6.25 0 0 0 0 14.37V60.892A6.25 6.25 0 0 0 6.243 67.135H16.259L13.254 70.141C13.244 70.15 13.235 70.162 13.225 70.17L13.17 70.225C13.092 70.302 13.032 70.389 12.968 70.473A2.4 2.4 0 0 0 12.759 70.793 2.4 2.4 0 0 0 12.613 71.097C12.601 71.128 12.58 71.155 12.57 71.187L4.807 94.471A2.464 2.464 0 0 0 7.92 97.586L31.207 89.824C31.228 89.817 31.246 89.803 31.268 89.795 31.435 89.734 31.597 89.658 31.748 89.563 31.758 89.557 31.768 89.554 31.777 89.548 31.919 89.455 32.051 89.35 32.172 89.23L54.26 67.136H64.652C68.094 67.136 70.893 64.336 70.893 60.893V50.498L85.902 35.487C86.049 35.339 86.169 35.17 86.272 34.993L99.28 21.987A2.46 2.46 0 0 0 99.279 18.508M65.971 60.893C65.971 61.622 65.379 62.214 64.652 62.214H59.182L65.971 55.422zM68.494 21.848L72.937 26.29 22.833 76.408 18.391 71.967zM4.921 60.893V14.37C4.921 13.641 5.513 13.049 6.242 13.049H64.651A1.32 1.32 0 0 1 65.97 14.37V17.318L21.174 62.214H6.243A1.323 1.323 0 0 1 4.921 60.893M11.033 91.359L15.979 76.52 25.872 86.413zM66.693 47.738S66.691 47.738 66.691 47.74L64.021 50.411 30.431 84.008 26.312 79.888 76.418 29.77 80.539 33.89zM84.1 30.205L72.055 18.166 82.016 8.204 94.059 20.247z" fill="black"></path><path d="M22.885 27.229C22.885 26.577 22.626 25.952 22.164 25.489L16.247 19.573A2.462 2.462 0 0 0 12.767 23.055L16.943 27.229 12.767 31.405A2.46 2.46 0 0 0 12.767 34.885 2.455 2.455 0 0 0 16.247 34.886L22.164 28.97A2.46 2.46 0 0 0 22.885 27.229" fill="black"></path><path d="M26.482 35.606H33.53A2.461 2.461 0 0 0 33.53 30.683H26.482A2.462 2.462 0 0 0 26.482 35.606" fill="black"></path></g></svg></g></svg></g></svg></g></svg></g></svg></g><defs><mask></mask></defs><mask><g id="SvgjsG2781"><svg viewBox="0 0 395.52 247.2" height="247.2" width="395.52"><g><svg></svg></g><g><svg viewBox="0 0 395.52 247.2" height="247.2" width="395.52"><g><path d="M55.039 247.2l36.619-63.427 0 13.071-25.093 43.463h262.39l-25.093-43.463v-13.071l36.619 63.427zM197.76 0l26.403 45.732-7.546 0-18.857-32.662-18.857 32.662-7.546 0z" fill="black" fill-rule="nonzero" stroke="none" stroke-width="1" stroke-linecap="butt" stroke-linejoin="miter" stroke-miterlimit="10" stroke-dasharray="" stroke-dashoffset="0" font-family="none" font-weight="none" font-size="none" text-anchor="none" style="mix-blend-mode: normal"></path></g><g transform="matrix(1,0,0,1,113.90633309468653,67.97999999999999)"><svg viewBox="0 0 167.70733381062692 111.24" height="111.24" width="167.70733381062692"><g><svg viewBox="0 0 168.54587047968002 111.79619999999998" height="111.24" width="167.70733381062692"><g><rect width="10.031737999679999" height="111.79619999999998" x="66.74503824000001" y="0" fill="black" opacity="1" stroke-width="0" stroke="transparent" fill-opacity="1" class="rect-yte-0" rx="1%" id="SvgjsRect2780" data-palette-color="url(#58a108ff-76a8-496b-b7b4-94054b5292ff)"></rect></g><g transform="matrix(1,0,0,1,103.03787047968001,0.2780999999999949)"><svg viewBox="0 0 65.50800000000001 111.24" height="111.24" width="65.50800000000001"><g id="SvgjsG2779"><svg viewBox="0 0 65.50800000000001 111.24" height="111.24" width="65.50800000000001" id="SvgjsSvg2778"><g><svg viewBox="0 0 65.50800000000001 111.24" height="111.24" width="65.50800000000001"><g transform="matrix(1,0,0,1,0,0)"><svg width="65.50800000000001" viewBox="2.25 -35.45 21.2 36.00000000000001" height="111.24" data-palette-color="url(#8e54c0ed-bd90-499f-af38-b94df9000779)"><g class="wordmark-text-0" data-fill-palette-color="primary" id="SvgjsG2777"><path d="M12.7 0.55L12.7 0.55Q9.03 0.55 6.28-0.68 3.53-1.9 2.25-3.25L2.25-3.25 4.8-8.5Q5.33-7.83 6.46-6.98 7.6-6.13 9.11-5.49 10.63-4.85 12.25-4.85L12.25-4.85Q14.13-4.85 15.51-5.9 16.9-6.95 16.9-9L16.9-9Q16.9-11.03 15.46-12.21 14.03-13.4 11.55-14.9L11.55-14.9Q9.53-16.13 7.58-17.51 5.63-18.9 4.34-20.91 3.05-22.93 3.05-26L3.05-26Q3.05-30.13 5.69-32.79 8.33-35.45 13.35-35.45L13.35-35.45Q15.9-35.45 17.69-34.85 19.48-34.25 20.59-33.48 21.7-32.7 22.25-32.2L22.25-32.2 19.45-27.1Q19.1-27.6 18.28-28.33 17.45-29.05 16.25-29.6 15.05-30.15 13.6-30.15L13.6-30.15Q11.58-30.15 10.56-28.99 9.55-27.83 9.55-26.25L9.55-26.25Q9.55-24.23 11.04-22.95 12.53-21.68 14.65-20.4L14.65-20.4Q17-19 19-17.59 21-16.18 22.23-14.21 23.45-12.25 23.45-9.2L23.45-9.2Q23.45-4.63 20.58-2.04 17.7 0.55 12.7 0.55Z" fill="black"></path></g></svg></g></svg></g></svg></g></svg></g><g transform="matrix(1,0,0,1,0,44.21658202919986)"><svg viewBox="0 0 40.48394400000001 23.363035941600263" height="23.363035941600263" width="40.48394400000001"><g><svg xmlns="http://www.w3.org/2000/svg" xmlns:xlink="http://www.w3.org/1999/xlink" version="1.1" x="8" y="0" viewBox="0 2.2889999999999997 100.00003478060117 95.42189798916631" enable-background="new 0 0 100 100" xml:space="preserve" id="SvgjsSvg2776" width="24.483944000000008" height="23.363035941600263" class="icon-icon-0" data-fill-palette-color="accent"><g fill="black"><path d="M99.279 18.508L83.756 2.982C82.833 2.058 81.198 2.058 80.276 2.982L70.62 12.641C69.864 10.041 67.49 8.125 64.652 8.125H6.243A6.25 6.25 0 0 0 0 14.37V60.892A6.25 6.25 0 0 0 6.243 67.135H16.259L13.254 70.141C13.244 70.15 13.235 70.162 13.225 70.17L13.17 70.225C13.092 70.302 13.032 70.389 12.968 70.473A2.4 2.4 0 0 0 12.759 70.793 2.4 2.4 0 0 0 12.613 71.097C12.601 71.128 12.58 71.155 12.57 71.187L4.807 94.471A2.464 2.464 0 0 0 7.92 97.586L31.207 89.824C31.228 89.817 31.246 89.803 31.268 89.795 31.435 89.734 31.597 89.658 31.748 89.563 31.758 89.557 31.768 89.554 31.777 89.548 31.919 89.455 32.051 89.35 32.172 89.23L54.26 67.136H64.652C68.094 67.136 70.893 64.336 70.893 60.893V50.498L85.902 35.487C86.049 35.339 86.169 35.17 86.272 34.993L99.28 21.987A2.46 2.46 0 0 0 99.279 18.508M65.971 60.893C65.971 61.622 65.379 62.214 64.652 62.214H59.182L65.971 55.422zM68.494 21.848L72.937 26.29 22.833 76.408 18.391 71.967zM4.921 60.893V14.37C4.921 13.641 5.513 13.049 6.242 13.049H64.651A1.32 1.32 0 0 1 65.97 14.37V17.318L21.174 62.214H6.243A1.323 1.323 0 0 1 4.921 60.893M11.033 91.359L15.979 76.52 25.872 86.413zM66.693 47.738S66.691 47.738 66.691 47.74L64.021 50.411 30.431 84.008 26.312 79.888 76.418 29.77 80.539 33.89zM84.1 30.205L72.055 18.166 82.016 8.204 94.059 20.247z" fill="black"></path><path d="M22.885 27.229C22.885 26.577 22.626 25.952 22.164 25.489L16.247 19.573A2.462 2.462 0 0 0 12.767 23.055L16.943 27.229 12.767 31.405A2.46 2.46 0 0 0 12.767 34.885 2.455 2.455 0 0 0 16.247 34.886L22.164 28.97A2.46 2.46 0 0 0 22.885 27.229" fill="black"></path><path d="M26.482 35.606H33.53A2.461 2.461 0 0 0 33.53 30.683H26.482A2.462 2.462 0 0 0 26.482 35.606" fill="black"></path></g></svg></g></svg></g></svg></g></svg></g></svg></g><defs><mask></mask></defs></svg><rect width="395.52" height="247.2" fill="black" stroke="none" visibility="hidden"></rect></g></mask></svg><rect width="395.52" height="247.2" fill="black" stroke="none" visibility="hidden"></rect></g></mask></svg><rect width="395.52" height="247.2" fill="black" stroke="none" visibility="hidden"></rect></g></mask><linearGradient x1="0.054" x2="0.941" y1="0.5" y2="0.5" id="2dbfec4e-2822-41e0-ac19-f329d7f93c5e"><stop stop-color="#eaa79c" offset="0"></stop><stop stop-color="#f2e8cb" offset="0.498"></stop><stop stop-color="#eaa79c" offset="1"></stop></linearGradient><rect width="395.52" height="247.2" fill="#ffffff" mask="url(#04307b20-e005-484e-8c3c-f7b45e5e63af)" data-fill-palette-color="accent"></rect><mask id="18a2279b-b113-499a-adc2-70ee1ab5b04f"><g id="SvgjsG2844"><svg viewBox="0 0 395.52 247.2" height="247.2" width="395.52"><g><svg></svg></g><g><svg viewBox="0 0 395.52 247.2" height="247.2" width="395.52"><g><path d="M55.039 247.2l36.619-63.427 0 13.071-25.093 43.463h262.39l-25.093-43.463v-13.071l36.619 63.427zM197.76 0l26.403 45.732-7.546 0-18.857-32.662-18.857 32.662-7.546 0z" fill="white" fill-rule="nonzero" stroke="none" stroke-width="1" stroke-linecap="butt" stroke-linejoin="miter" stroke-miterlimit="10" stroke-dasharray="" stroke-dashoffset="0" font-family="none" font-weight="none" font-size="none" text-anchor="none" style="mix-blend-mode: normal"></path></g><g transform="matrix(1,0,0,1,113.90633309468653,67.97999999999999)"><svg viewBox="0 0 167.70733381062692 111.24" height="111.24" width="167.70733381062692"><g><svg viewBox="0 0 168.54587047968002 111.79619999999998" height="111.24" width="167.70733381062692"><g></g><g transform="matrix(1,0,0,1,103.03787047968001,0.2780999999999949)"><svg viewBox="0 0 65.50800000000001 111.24" height="111.24" width="65.50800000000001"><g id="SvgjsG2843"><svg viewBox="0 0 65.50800000000001 111.24" height="111.24" width="65.50800000000001" id="SvgjsSvg2842"><g><svg viewBox="0 0 65.50800000000001 111.24" height="111.24" width="65.50800000000001"><g transform="matrix(1,0,0,1,0,0)"><svg width="65.50800000000001" viewBox="2.25 -35.45 21.2 36.00000000000001" height="111.24" data-palette-color="url(#8e54c0ed-bd90-499f-af38-b94df9000779)"><g class="wordmark-text-0" data-fill-palette-color="primary" id="SvgjsG2841"></g></svg></g></svg></g></svg></g></svg></g><g transform="matrix(1,0,0,1,0,44.21658202919986)"><svg viewBox="0 0 40.48394400000001 23.363035941600263" height="23.363035941600263" width="40.48394400000001"><g><svg xmlns="http://www.w3.org/2000/svg" xmlns:xlink="http://www.w3.org/1999/xlink" version="1.1" x="8" y="0" viewBox="0 2.2889999999999997 100.00003478060117 95.42189798916631" enable-background="new 0 0 100 100" xml:space="preserve" id="SvgjsSvg2840" width="24.483944000000008" height="23.363035941600263" class="icon-icon-0" data-fill-palette-color="accent"></svg></g></svg></g></svg></g></svg></g></svg></g><defs><mask></mask></defs><mask><g id="SvgjsG2839"><svg viewBox="0 0 395.52 247.2" height="247.2" width="395.52"><g><svg></svg></g><g><svg viewBox="0 0 395.52 247.2" height="247.2" width="395.52"><g><path d="M55.039 247.2l36.619-63.427 0 13.071-25.093 43.463h262.39l-25.093-43.463v-13.071l36.619 63.427zM197.76 0l26.403 45.732-7.546 0-18.857-32.662-18.857 32.662-7.546 0z" fill="black" fill-rule="nonzero" stroke="none" stroke-width="1" stroke-linecap="butt" stroke-linejoin="miter" stroke-miterlimit="10" stroke-dasharray="" stroke-dashoffset="0" font-family="none" font-weight="none" font-size="none" text-anchor="none" style="mix-blend-mode: normal"></path></g><g transform="matrix(1,0,0,1,113.90633309468653,67.97999999999999)"><svg viewBox="0 0 167.70733381062692 111.24" height="111.24" width="167.70733381062692"><g><svg viewBox="0 0 168.54587047968002 111.79619999999998" height="111.24" width="167.70733381062692"><g><rect width="10.031737999679999" height="111.79619999999998" x="66.74503824000001" y="0" fill="black" opacity="1" stroke-width="0" stroke="transparent" fill-opacity="1" class="rect-yte-0" rx="1%" id="SvgjsRect2838" data-palette-color="url(#58a108ff-76a8-496b-b7b4-94054b5292ff)"></rect></g><g transform="matrix(1,0,0,1,103.03787047968001,0.2780999999999949)"><svg viewBox="0 0 65.50800000000001 111.24" height="111.24" width="65.50800000000001"><g id="SvgjsG2837"><svg viewBox="0 0 65.50800000000001 111.24" height="111.24" width="65.50800000000001" id="SvgjsSvg2836"><g><svg viewBox="0 0 65.50800000000001 111.24" height="111.24" width="65.50800000000001"><g transform="matrix(1,0,0,1,0,0)"><svg width="65.50800000000001" viewBox="2.25 -35.45 21.2 36.00000000000001" height="111.24" data-palette-color="url(#8e54c0ed-bd90-499f-af38-b94df9000779)"><g class="wordmark-text-0" data-fill-palette-color="primary" id="SvgjsG2835"><path d="M12.7 0.55L12.7 0.55Q9.03 0.55 6.28-0.68 3.53-1.9 2.25-3.25L2.25-3.25 4.8-8.5Q5.33-7.83 6.46-6.98 7.6-6.13 9.11-5.49 10.63-4.85 12.25-4.85L12.25-4.85Q14.13-4.85 15.51-5.9 16.9-6.95 16.9-9L16.9-9Q16.9-11.03 15.46-12.21 14.03-13.4 11.55-14.9L11.55-14.9Q9.53-16.13 7.58-17.51 5.63-18.9 4.34-20.91 3.05-22.93 3.05-26L3.05-26Q3.05-30.13 5.69-32.79 8.33-35.45 13.35-35.45L13.35-35.45Q15.9-35.45 17.69-34.85 19.48-34.25 20.59-33.48 21.7-32.7 22.25-32.2L22.25-32.2 19.45-27.1Q19.1-27.6 18.28-28.33 17.45-29.05 16.25-29.6 15.05-30.15 13.6-30.15L13.6-30.15Q11.58-30.15 10.56-28.99 9.55-27.83 9.55-26.25L9.55-26.25Q9.55-24.23 11.04-22.95 12.53-21.68 14.65-20.4L14.65-20.4Q17-19 19-17.59 21-16.18 22.23-14.21 23.45-12.25 23.45-9.2L23.45-9.2Q23.45-4.63 20.58-2.04 17.7 0.55 12.7 0.55Z" fill="black"></path></g></svg></g></svg></g></svg></g></svg></g><g transform="matrix(1,0,0,1,0,44.21658202919986)"><svg viewBox="0 0 40.48394400000001 23.363035941600263" height="23.363035941600263" width="40.48394400000001"><g><svg xmlns="http://www.w3.org/2000/svg" xmlns:xlink="http://www.w3.org/1999/xlink" version="1.1" x="8" y="0" viewBox="0 2.2889999999999997 100.00003478060117 95.42189798916631" enable-background="new 0 0 100 100" xml:space="preserve" id="SvgjsSvg2834" width="24.483944000000008" height="23.363035941600263" class="icon-icon-0" data-fill-palette-color="accent"><g fill="black"><path d="M99.279 18.508L83.756 2.982C82.833 2.058 81.198 2.058 80.276 2.982L70.62 12.641C69.864 10.041 67.49 8.125 64.652 8.125H6.243A6.25 6.25 0 0 0 0 14.37V60.892A6.25 6.25 0 0 0 6.243 67.135H16.259L13.254 70.141C13.244 70.15 13.235 70.162 13.225 70.17L13.17 70.225C13.092 70.302 13.032 70.389 12.968 70.473A2.4 2.4 0 0 0 12.759 70.793 2.4 2.4 0 0 0 12.613 71.097C12.601 71.128 12.58 71.155 12.57 71.187L4.807 94.471A2.464 2.464 0 0 0 7.92 97.586L31.207 89.824C31.228 89.817 31.246 89.803 31.268 89.795 31.435 89.734 31.597 89.658 31.748 89.563 31.758 89.557 31.768 89.554 31.777 89.548 31.919 89.455 32.051 89.35 32.172 89.23L54.26 67.136H64.652C68.094 67.136 70.893 64.336 70.893 60.893V50.498L85.902 35.487C86.049 35.339 86.169 35.17 86.272 34.993L99.28 21.987A2.46 2.46 0 0 0 99.279 18.508M65.971 60.893C65.971 61.622 65.379 62.214 64.652 62.214H59.182L65.971 55.422zM68.494 21.848L72.937 26.29 22.833 76.408 18.391 71.967zM4.921 60.893V14.37C4.921 13.641 5.513 13.049 6.242 13.049H64.651A1.32 1.32 0 0 1 65.97 14.37V17.318L21.174 62.214H6.243A1.323 1.323 0 0 1 4.921 60.893M11.033 91.359L15.979 76.52 25.872 86.413zM66.693 47.738S66.691 47.738 66.691 47.74L64.021 50.411 30.431 84.008 26.312 79.888 76.418 29.77 80.539 33.89zM84.1 30.205L72.055 18.166 82.016 8.204 94.059 20.247z" fill="black"></path><path d="M22.885 27.229C22.885 26.577 22.626 25.952 22.164 25.489L16.247 19.573A2.462 2.462 0 0 0 12.767 23.055L16.943 27.229 12.767 31.405A2.46 2.46 0 0 0 12.767 34.885 2.455 2.455 0 0 0 16.247 34.886L22.164 28.97A2.46 2.46 0 0 0 22.885 27.229" fill="black"></path><path d="M26.482 35.606H33.53A2.461 2.461 0 0 0 33.53 30.683H26.482A2.462 2.462 0 0 0 26.482 35.606" fill="black"></path></g></svg></g></svg></g></svg></g></svg></g></svg></g><defs><mask></mask></defs></svg><rect width="395.52" height="247.2" fill="black" stroke="none" visibility="hidden"></rect></g></mask><mask><g id="SvgjsG2833"><svg viewBox="0 0 395.52 247.2" height="247.2" width="395.52"><g><svg></svg></g><g><svg viewBox="0 0 395.52 247.2" height="247.2" width="395.52"><g><path d="M55.039 247.2l36.619-63.427 0 13.071-25.093 43.463h262.39l-25.093-43.463v-13.071l36.619 63.427zM197.76 0l26.403 45.732-7.546 0-18.857-32.662-18.857 32.662-7.546 0z" fill="black" fill-rule="nonzero" stroke="none" stroke-width="1" stroke-linecap="butt" stroke-linejoin="miter" stroke-miterlimit="10" stroke-dasharray="" stroke-dashoffset="0" font-family="none" font-weight="none" font-size="none" text-anchor="none" style="mix-blend-mode: normal"></path></g><g transform="matrix(1,0,0,1,113.90633309468653,67.97999999999999)"><svg viewBox="0 0 167.70733381062692 111.24" height="111.24" width="167.70733381062692"><g><svg viewBox="0 0 168.54587047968002 111.79619999999998" height="111.24" width="167.70733381062692"><g><rect width="10.031737999679999" height="111.79619999999998" x="66.74503824000001" y="0" fill="black" opacity="1" stroke-width="0" stroke="transparent" fill-opacity="1" class="rect-yte-0" rx="1%" id="SvgjsRect2832" data-palette-color="url(#58a108ff-76a8-496b-b7b4-94054b5292ff)"></rect></g><g transform="matrix(1,0,0,1,103.03787047968001,0.2780999999999949)"><svg viewBox="0 0 65.50800000000001 111.24" height="111.24" width="65.50800000000001"><g id="SvgjsG2831"><svg viewBox="0 0 65.50800000000001 111.24" height="111.24" width="65.50800000000001" id="SvgjsSvg2830"><g><svg viewBox="0 0 65.50800000000001 111.24" height="111.24" width="65.50800000000001"><g transform="matrix(1,0,0,1,0,0)"><svg width="65.50800000000001" viewBox="2.25 -35.45 21.2 36.00000000000001" height="111.24" data-palette-color="url(#8e54c0ed-bd90-499f-af38-b94df9000779)"><g class="wordmark-text-0" data-fill-palette-color="primary" id="SvgjsG2829"></g></svg></g></svg></g></svg></g></svg></g><g transform="matrix(1,0,0,1,0,44.21658202919986)"><svg viewBox="0 0 40.48394400000001 23.363035941600263" height="23.363035941600263" width="40.48394400000001"><g><svg xmlns="http://www.w3.org/2000/svg" xmlns:xlink="http://www.w3.org/1999/xlink" version="1.1" x="8" y="0" viewBox="0 2.2889999999999997 100.00003478060117 95.42189798916631" enable-background="new 0 0 100 100" xml:space="preserve" id="SvgjsSvg2828" width="24.483944000000008" height="23.363035941600263" class="icon-icon-0" data-fill-palette-color="accent"><g fill="black"><path d="M99.279 18.508L83.756 2.982C82.833 2.058 81.198 2.058 80.276 2.982L70.62 12.641C69.864 10.041 67.49 8.125 64.652 8.125H6.243A6.25 6.25 0 0 0 0 14.37V60.892A6.25 6.25 0 0 0 6.243 67.135H16.259L13.254 70.141C13.244 70.15 13.235 70.162 13.225 70.17L13.17 70.225C13.092 70.302 13.032 70.389 12.968 70.473A2.4 2.4 0 0 0 12.759 70.793 2.4 2.4 0 0 0 12.613 71.097C12.601 71.128 12.58 71.155 12.57 71.187L4.807 94.471A2.464 2.464 0 0 0 7.92 97.586L31.207 89.824C31.228 89.817 31.246 89.803 31.268 89.795 31.435 89.734 31.597 89.658 31.748 89.563 31.758 89.557 31.768 89.554 31.777 89.548 31.919 89.455 32.051 89.35 32.172 89.23L54.26 67.136H64.652C68.094 67.136 70.893 64.336 70.893 60.893V50.498L85.902 35.487C86.049 35.339 86.169 35.17 86.272 34.993L99.28 21.987A2.46 2.46 0 0 0 99.279 18.508M65.971 60.893C65.971 61.622 65.379 62.214 64.652 62.214H59.182L65.971 55.422zM68.494 21.848L72.937 26.29 22.833 76.408 18.391 71.967zM4.921 60.893V14.37C4.921 13.641 5.513 13.049 6.242 13.049H64.651A1.32 1.32 0 0 1 65.97 14.37V17.318L21.174 62.214H6.243A1.323 1.323 0 0 1 4.921 60.893M11.033 91.359L15.979 76.52 25.872 86.413zM66.693 47.738S66.691 47.738 66.691 47.74L64.021 50.411 30.431 84.008 26.312 79.888 76.418 29.77 80.539 33.89zM84.1 30.205L72.055 18.166 82.016 8.204 94.059 20.247z" fill="black"></path><path d="M22.885 27.229C22.885 26.577 22.626 25.952 22.164 25.489L16.247 19.573A2.462 2.462 0 0 0 12.767 23.055L16.943 27.229 12.767 31.405A2.46 2.46 0 0 0 12.767 34.885 2.455 2.455 0 0 0 16.247 34.886L22.164 28.97A2.46 2.46 0 0 0 22.885 27.229" fill="black"></path><path d="M26.482 35.606H33.53A2.461 2.461 0 0 0 33.53 30.683H26.482A2.462 2.462 0 0 0 26.482 35.606" fill="black"></path></g></svg></g></svg></g></svg></g></svg></g></svg></g><defs><mask></mask></defs><mask><g id="SvgjsG2827"><svg viewBox="0 0 395.52 247.2" height="247.2" width="395.52"><g><svg></svg></g><g><svg viewBox="0 0 395.52 247.2" height="247.2" width="395.52"><g><path d="M55.039 247.2l36.619-63.427 0 13.071-25.093 43.463h262.39l-25.093-43.463v-13.071l36.619 63.427zM197.76 0l26.403 45.732-7.546 0-18.857-32.662-18.857 32.662-7.546 0z" fill="black" fill-rule="nonzero" stroke="none" stroke-width="1" stroke-linecap="butt" stroke-linejoin="miter" stroke-miterlimit="10" stroke-dasharray="" stroke-dashoffset="0" font-family="none" font-weight="none" font-size="none" text-anchor="none" style="mix-blend-mode: normal"></path></g><g transform="matrix(1,0,0,1,113.90633309468653,67.97999999999999)"><svg viewBox="0 0 167.70733381062692 111.24" height="111.24" width="167.70733381062692"><g><svg viewBox="0 0 168.54587047968002 111.79619999999998" height="111.24" width="167.70733381062692"><g><rect width="10.031737999679999" height="111.79619999999998" x="66.74503824000001" y="0" fill="black" opacity="1" stroke-width="0" stroke="transparent" fill-opacity="1" class="rect-yte-0" rx="1%" id="SvgjsRect2826" data-palette-color="url(#58a108ff-76a8-496b-b7b4-94054b5292ff)"></rect></g><g transform="matrix(1,0,0,1,103.03787047968001,0.2780999999999949)"><svg viewBox="0 0 65.50800000000001 111.24" height="111.24" width="65.50800000000001"><g id="SvgjsG2825"><svg viewBox="0 0 65.50800000000001 111.24" height="111.24" width="65.50800000000001" id="SvgjsSvg2824"><g><svg viewBox="0 0 65.50800000000001 111.24" height="111.24" width="65.50800000000001"><g transform="matrix(1,0,0,1,0,0)"><svg width="65.50800000000001" viewBox="2.25 -35.45 21.2 36.00000000000001" height="111.24" data-palette-color="url(#8e54c0ed-bd90-499f-af38-b94df9000779)"><g class="wordmark-text-0" data-fill-palette-color="primary" id="SvgjsG2823"><path d="M12.7 0.55L12.7 0.55Q9.03 0.55 6.28-0.68 3.53-1.9 2.25-3.25L2.25-3.25 4.8-8.5Q5.33-7.83 6.46-6.98 7.6-6.13 9.11-5.49 10.63-4.85 12.25-4.85L12.25-4.85Q14.13-4.85 15.51-5.9 16.9-6.95 16.9-9L16.9-9Q16.9-11.03 15.46-12.21 14.03-13.4 11.55-14.9L11.55-14.9Q9.53-16.13 7.58-17.51 5.63-18.9 4.34-20.91 3.05-22.93 3.05-26L3.05-26Q3.05-30.13 5.69-32.79 8.33-35.45 13.35-35.45L13.35-35.45Q15.9-35.45 17.69-34.85 19.48-34.25 20.59-33.48 21.7-32.7 22.25-32.2L22.25-32.2 19.45-27.1Q19.1-27.6 18.28-28.33 17.45-29.05 16.25-29.6 15.05-30.15 13.6-30.15L13.6-30.15Q11.58-30.15 10.56-28.99 9.55-27.83 9.55-26.25L9.55-26.25Q9.55-24.23 11.04-22.95 12.53-21.68 14.65-20.4L14.65-20.4Q17-19 19-17.59 21-16.18 22.23-14.21 23.45-12.25 23.45-9.2L23.45-9.2Q23.45-4.63 20.58-2.04 17.7 0.55 12.7 0.55Z" fill="black"></path></g></svg></g></svg></g></svg></g></svg></g><g transform="matrix(1,0,0,1,0,44.21658202919986)"><svg viewBox="0 0 40.48394400000001 23.363035941600263" height="23.363035941600263" width="40.48394400000001"><g><svg xmlns="http://www.w3.org/2000/svg" xmlns:xlink="http://www.w3.org/1999/xlink" version="1.1" x="8" y="0" viewBox="0 2.2889999999999997 100.00003478060117 95.42189798916631" enable-background="new 0 0 100 100" xml:space="preserve" id="SvgjsSvg2822" width="24.483944000000008" height="23.363035941600263" class="icon-icon-0" data-fill-palette-color="accent"><g fill="black"><path d="M99.279 18.508L83.756 2.982C82.833 2.058 81.198 2.058 80.276 2.982L70.62 12.641C69.864 10.041 67.49 8.125 64.652 8.125H6.243A6.25 6.25 0 0 0 0 14.37V60.892A6.25 6.25 0 0 0 6.243 67.135H16.259L13.254 70.141C13.244 70.15 13.235 70.162 13.225 70.17L13.17 70.225C13.092 70.302 13.032 70.389 12.968 70.473A2.4 2.4 0 0 0 12.759 70.793 2.4 2.4 0 0 0 12.613 71.097C12.601 71.128 12.58 71.155 12.57 71.187L4.807 94.471A2.464 2.464 0 0 0 7.92 97.586L31.207 89.824C31.228 89.817 31.246 89.803 31.268 89.795 31.435 89.734 31.597 89.658 31.748 89.563 31.758 89.557 31.768 89.554 31.777 89.548 31.919 89.455 32.051 89.35 32.172 89.23L54.26 67.136H64.652C68.094 67.136 70.893 64.336 70.893 60.893V50.498L85.902 35.487C86.049 35.339 86.169 35.17 86.272 34.993L99.28 21.987A2.46 2.46 0 0 0 99.279 18.508M65.971 60.893C65.971 61.622 65.379 62.214 64.652 62.214H59.182L65.971 55.422zM68.494 21.848L72.937 26.29 22.833 76.408 18.391 71.967zM4.921 60.893V14.37C4.921 13.641 5.513 13.049 6.242 13.049H64.651A1.32 1.32 0 0 1 65.97 14.37V17.318L21.174 62.214H6.243A1.323 1.323 0 0 1 4.921 60.893M11.033 91.359L15.979 76.52 25.872 86.413zM66.693 47.738S66.691 47.738 66.691 47.74L64.021 50.411 30.431 84.008 26.312 79.888 76.418 29.77 80.539 33.89zM84.1 30.205L72.055 18.166 82.016 8.204 94.059 20.247z" fill="black"></path><path d="M22.885 27.229C22.885 26.577 22.626 25.952 22.164 25.489L16.247 19.573A2.462 2.462 0 0 0 12.767 23.055L16.943 27.229 12.767 31.405A2.46 2.46 0 0 0 12.767 34.885 2.455 2.455 0 0 0 16.247 34.886L22.164 28.97A2.46 2.46 0 0 0 22.885 27.229" fill="black"></path><path d="M26.482 35.606H33.53A2.461 2.461 0 0 0 33.53 30.683H26.482A2.462 2.462 0 0 0 26.482 35.606" fill="black"></path></g></svg></g></svg></g></svg></g></svg></g></svg></g><defs><mask></mask></defs></svg><rect width="395.52" height="247.2" fill="black" stroke="none" visibility="hidden"></rect></g></mask></svg><rect width="395.52" height="247.2" fill="black" stroke="none" visibility="hidden"></rect></g></mask><mask><g id="SvgjsG2821"><svg viewBox="0 0 395.52 247.2" height="247.2" width="395.52"><g><svg></svg></g><g><svg viewBox="0 0 395.52 247.2" height="247.2" width="395.52"><g><path d="M55.039 247.2l36.619-63.427 0 13.071-25.093 43.463h262.39l-25.093-43.463v-13.071l36.619 63.427zM197.76 0l26.403 45.732-7.546 0-18.857-32.662-18.857 32.662-7.546 0z" fill="black" fill-rule="nonzero" stroke="none" stroke-width="1" stroke-linecap="butt" stroke-linejoin="miter" stroke-miterlimit="10" stroke-dasharray="" stroke-dashoffset="0" font-family="none" font-weight="none" font-size="none" text-anchor="none" style="mix-blend-mode: normal"></path></g><g transform="matrix(1,0,0,1,113.90633309468653,67.97999999999999)"><svg viewBox="0 0 167.70733381062692 111.24" height="111.24" width="167.70733381062692"><g><svg viewBox="0 0 168.54587047968002 111.79619999999998" height="111.24" width="167.70733381062692"><g></g><g transform="matrix(1,0,0,1,103.03787047968001,0.2780999999999949)"><svg viewBox="0 0 65.50800000000001 111.24" height="111.24" width="65.50800000000001"><g id="SvgjsG2820"><svg viewBox="0 0 65.50800000000001 111.24" height="111.24" width="65.50800000000001" id="SvgjsSvg2819"><g><svg viewBox="0 0 65.50800000000001 111.24" height="111.24" width="65.50800000000001"><g transform="matrix(1,0,0,1,0,0)"><svg width="65.50800000000001" viewBox="2.25 -35.45 21.2 36.00000000000001" height="111.24" data-palette-color="url(#8e54c0ed-bd90-499f-af38-b94df9000779)"><g class="wordmark-text-0" data-fill-palette-color="primary" id="SvgjsG2818"></g></svg></g></svg></g></svg></g></svg></g><g transform="matrix(1,0,0,1,0,44.21658202919986)"><svg viewBox="0 0 40.48394400000001 23.363035941600263" height="23.363035941600263" width="40.48394400000001"><g><svg xmlns="http://www.w3.org/2000/svg" xmlns:xlink="http://www.w3.org/1999/xlink" version="1.1" x="8" y="0" viewBox="0 2.2889999999999997 100.00003478060117 95.42189798916631" enable-background="new 0 0 100 100" xml:space="preserve" id="SvgjsSvg2817" width="24.483944000000008" height="23.363035941600263" class="icon-icon-0" data-fill-palette-color="accent"><g fill="black"><path d="M99.279 18.508L83.756 2.982C82.833 2.058 81.198 2.058 80.276 2.982L70.62 12.641C69.864 10.041 67.49 8.125 64.652 8.125H6.243A6.25 6.25 0 0 0 0 14.37V60.892A6.25 6.25 0 0 0 6.243 67.135H16.259L13.254 70.141C13.244 70.15 13.235 70.162 13.225 70.17L13.17 70.225C13.092 70.302 13.032 70.389 12.968 70.473A2.4 2.4 0 0 0 12.759 70.793 2.4 2.4 0 0 0 12.613 71.097C12.601 71.128 12.58 71.155 12.57 71.187L4.807 94.471A2.464 2.464 0 0 0 7.92 97.586L31.207 89.824C31.228 89.817 31.246 89.803 31.268 89.795 31.435 89.734 31.597 89.658 31.748 89.563 31.758 89.557 31.768 89.554 31.777 89.548 31.919 89.455 32.051 89.35 32.172 89.23L54.26 67.136H64.652C68.094 67.136 70.893 64.336 70.893 60.893V50.498L85.902 35.487C86.049 35.339 86.169 35.17 86.272 34.993L99.28 21.987A2.46 2.46 0 0 0 99.279 18.508M65.971 60.893C65.971 61.622 65.379 62.214 64.652 62.214H59.182L65.971 55.422zM68.494 21.848L72.937 26.29 22.833 76.408 18.391 71.967zM4.921 60.893V14.37C4.921 13.641 5.513 13.049 6.242 13.049H64.651A1.32 1.32 0 0 1 65.97 14.37V17.318L21.174 62.214H6.243A1.323 1.323 0 0 1 4.921 60.893M11.033 91.359L15.979 76.52 25.872 86.413zM66.693 47.738S66.691 47.738 66.691 47.74L64.021 50.411 30.431 84.008 26.312 79.888 76.418 29.77 80.539 33.89zM84.1 30.205L72.055 18.166 82.016 8.204 94.059 20.247z" fill="black"></path><path d="M22.885 27.229C22.885 26.577 22.626 25.952 22.164 25.489L16.247 19.573A2.462 2.462 0 0 0 12.767 23.055L16.943 27.229 12.767 31.405A2.46 2.46 0 0 0 12.767 34.885 2.455 2.455 0 0 0 16.247 34.886L22.164 28.97A2.46 2.46 0 0 0 22.885 27.229" fill="black"></path><path d="M26.482 35.606H33.53A2.461 2.461 0 0 0 33.53 30.683H26.482A2.462 2.462 0 0 0 26.482 35.606" fill="black"></path></g></svg></g></svg></g></svg></g></svg></g></svg></g><defs><mask></mask></defs><mask><g id="SvgjsG2816"><svg viewBox="0 0 395.52 247.2" height="247.2" width="395.52"><g><svg></svg></g><g><svg viewBox="0 0 395.52 247.2" height="247.2" width="395.52"><g><path d="M55.039 247.2l36.619-63.427 0 13.071-25.093 43.463h262.39l-25.093-43.463v-13.071l36.619 63.427zM197.76 0l26.403 45.732-7.546 0-18.857-32.662-18.857 32.662-7.546 0z" fill="black" fill-rule="nonzero" stroke="none" stroke-width="1" stroke-linecap="butt" stroke-linejoin="miter" stroke-miterlimit="10" stroke-dasharray="" stroke-dashoffset="0" font-family="none" font-weight="none" font-size="none" text-anchor="none" style="mix-blend-mode: normal"></path></g><g transform="matrix(1,0,0,1,113.90633309468653,67.97999999999999)"><svg viewBox="0 0 167.70733381062692 111.24" height="111.24" width="167.70733381062692"><g><svg viewBox="0 0 168.54587047968002 111.79619999999998" height="111.24" width="167.70733381062692"><g><rect width="10.031737999679999" height="111.79619999999998" x="66.74503824000001" y="0" fill="black" opacity="1" stroke-width="0" stroke="transparent" fill-opacity="1" class="rect-yte-0" rx="1%" id="SvgjsRect2815" data-palette-color="url(#58a108ff-76a8-496b-b7b4-94054b5292ff)"></rect></g><g transform="matrix(1,0,0,1,103.03787047968001,0.2780999999999949)"><svg viewBox="0 0 65.50800000000001 111.24" height="111.24" width="65.50800000000001"><g id="SvgjsG2814"><svg viewBox="0 0 65.50800000000001 111.24" height="111.24" width="65.50800000000001" id="SvgjsSvg2813"><g><svg viewBox="0 0 65.50800000000001 111.24" height="111.24" width="65.50800000000001"><g transform="matrix(1,0,0,1,0,0)"><svg width="65.50800000000001" viewBox="2.25 -35.45 21.2 36.00000000000001" height="111.24" data-palette-color="url(#8e54c0ed-bd90-499f-af38-b94df9000779)"><g class="wordmark-text-0" data-fill-palette-color="primary" id="SvgjsG2812"><path d="M12.7 0.55L12.7 0.55Q9.03 0.55 6.28-0.68 3.53-1.9 2.25-3.25L2.25-3.25 4.8-8.5Q5.33-7.83 6.46-6.98 7.6-6.13 9.11-5.49 10.63-4.85 12.25-4.85L12.25-4.85Q14.13-4.85 15.51-5.9 16.9-6.95 16.9-9L16.9-9Q16.9-11.03 15.46-12.21 14.03-13.4 11.55-14.9L11.55-14.9Q9.53-16.13 7.58-17.51 5.63-18.9 4.34-20.91 3.05-22.93 3.05-26L3.05-26Q3.05-30.13 5.69-32.79 8.33-35.45 13.35-35.45L13.35-35.45Q15.9-35.45 17.69-34.85 19.48-34.25 20.59-33.48 21.7-32.7 22.25-32.2L22.25-32.2 19.45-27.1Q19.1-27.6 18.28-28.33 17.45-29.05 16.25-29.6 15.05-30.15 13.6-30.15L13.6-30.15Q11.58-30.15 10.56-28.99 9.55-27.83 9.55-26.25L9.55-26.25Q9.55-24.23 11.04-22.95 12.53-21.68 14.65-20.4L14.65-20.4Q17-19 19-17.59 21-16.18 22.23-14.21 23.45-12.25 23.45-9.2L23.45-9.2Q23.45-4.63 20.58-2.04 17.7 0.55 12.7 0.55Z" fill="black"></path></g></svg></g></svg></g></svg></g></svg></g><g transform="matrix(1,0,0,1,0,44.21658202919986)"><svg viewBox="0 0 40.48394400000001 23.363035941600263" height="23.363035941600263" width="40.48394400000001"><g><svg xmlns="http://www.w3.org/2000/svg" xmlns:xlink="http://www.w3.org/1999/xlink" version="1.1" x="8" y="0" viewBox="0 2.2889999999999997 100.00003478060117 95.42189798916631" enable-background="new 0 0 100 100" xml:space="preserve" id="SvgjsSvg2811" width="24.483944000000008" height="23.363035941600263" class="icon-icon-0" data-fill-palette-color="accent"><g fill="black"><path d="M99.279 18.508L83.756 2.982C82.833 2.058 81.198 2.058 80.276 2.982L70.62 12.641C69.864 10.041 67.49 8.125 64.652 8.125H6.243A6.25 6.25 0 0 0 0 14.37V60.892A6.25 6.25 0 0 0 6.243 67.135H16.259L13.254 70.141C13.244 70.15 13.235 70.162 13.225 70.17L13.17 70.225C13.092 70.302 13.032 70.389 12.968 70.473A2.4 2.4 0 0 0 12.759 70.793 2.4 2.4 0 0 0 12.613 71.097C12.601 71.128 12.58 71.155 12.57 71.187L4.807 94.471A2.464 2.464 0 0 0 7.92 97.586L31.207 89.824C31.228 89.817 31.246 89.803 31.268 89.795 31.435 89.734 31.597 89.658 31.748 89.563 31.758 89.557 31.768 89.554 31.777 89.548 31.919 89.455 32.051 89.35 32.172 89.23L54.26 67.136H64.652C68.094 67.136 70.893 64.336 70.893 60.893V50.498L85.902 35.487C86.049 35.339 86.169 35.17 86.272 34.993L99.28 21.987A2.46 2.46 0 0 0 99.279 18.508M65.971 60.893C65.971 61.622 65.379 62.214 64.652 62.214H59.182L65.971 55.422zM68.494 21.848L72.937 26.29 22.833 76.408 18.391 71.967zM4.921 60.893V14.37C4.921 13.641 5.513 13.049 6.242 13.049H64.651A1.32 1.32 0 0 1 65.97 14.37V17.318L21.174 62.214H6.243A1.323 1.323 0 0 1 4.921 60.893M11.033 91.359L15.979 76.52 25.872 86.413zM66.693 47.738S66.691 47.738 66.691 47.74L64.021 50.411 30.431 84.008 26.312 79.888 76.418 29.77 80.539 33.89zM84.1 30.205L72.055 18.166 82.016 8.204 94.059 20.247z" fill="black"></path><path d="M22.885 27.229C22.885 26.577 22.626 25.952 22.164 25.489L16.247 19.573A2.462 2.462 0 0 0 12.767 23.055L16.943 27.229 12.767 31.405A2.46 2.46 0 0 0 12.767 34.885 2.455 2.455 0 0 0 16.247 34.886L22.164 28.97A2.46 2.46 0 0 0 22.885 27.229" fill="black"></path><path d="M26.482 35.606H33.53A2.461 2.461 0 0 0 33.53 30.683H26.482A2.462 2.462 0 0 0 26.482 35.606" fill="black"></path></g></svg></g></svg></g></svg></g></svg></g></svg></g><defs><mask></mask></defs></svg><rect width="395.52" height="247.2" fill="black" stroke="none" visibility="hidden"></rect></g></mask><mask><g id="SvgjsG2810"><svg viewBox="0 0 395.52 247.2" height="247.2" width="395.52"><g><svg></svg></g><g><svg viewBox="0 0 395.52 247.2" height="247.2" width="395.52"><g><path d="M55.039 247.2l36.619-63.427 0 13.071-25.093 43.463h262.39l-25.093-43.463v-13.071l36.619 63.427zM197.76 0l26.403 45.732-7.546 0-18.857-32.662-18.857 32.662-7.546 0z" fill="black" fill-rule="nonzero" stroke="none" stroke-width="1" stroke-linecap="butt" stroke-linejoin="miter" stroke-miterlimit="10" stroke-dasharray="" stroke-dashoffset="0" font-family="none" font-weight="none" font-size="none" text-anchor="none" style="mix-blend-mode: normal"></path></g><g transform="matrix(1,0,0,1,113.90633309468653,67.97999999999999)"><svg viewBox="0 0 167.70733381062692 111.24" height="111.24" width="167.70733381062692"><g><svg viewBox="0 0 168.54587047968002 111.79619999999998" height="111.24" width="167.70733381062692"><g><rect width="10.031737999679999" height="111.79619999999998" x="66.74503824000001" y="0" fill="black" opacity="1" stroke-width="0" stroke="transparent" fill-opacity="1" class="rect-yte-0" rx="1%" id="SvgjsRect2809" data-palette-color="url(#58a108ff-76a8-496b-b7b4-94054b5292ff)"></rect></g><g transform="matrix(1,0,0,1,103.03787047968001,0.2780999999999949)"><svg viewBox="0 0 65.50800000000001 111.24" height="111.24" width="65.50800000000001"><g id="SvgjsG2808"><svg viewBox="0 0 65.50800000000001 111.24" height="111.24" width="65.50800000000001" id="SvgjsSvg2807"><g><svg viewBox="0 0 65.50800000000001 111.24" height="111.24" width="65.50800000000001"><g transform="matrix(1,0,0,1,0,0)"><svg width="65.50800000000001" viewBox="2.25 -35.45 21.2 36.00000000000001" height="111.24" data-palette-color="url(#8e54c0ed-bd90-499f-af38-b94df9000779)"><g class="wordmark-text-0" data-fill-palette-color="primary" id="SvgjsG2806"></g></svg></g></svg></g></svg></g></svg></g><g transform="matrix(1,0,0,1,0,44.21658202919986)"><svg viewBox="0 0 40.48394400000001 23.363035941600263" height="23.363035941600263" width="40.48394400000001"><g><svg xmlns="http://www.w3.org/2000/svg" xmlns:xlink="http://www.w3.org/1999/xlink" version="1.1" x="8" y="0" viewBox="0 2.2889999999999997 100.00003478060117 95.42189798916631" enable-background="new 0 0 100 100" xml:space="preserve" id="SvgjsSvg2805" width="24.483944000000008" height="23.363035941600263" class="icon-icon-0" data-fill-palette-color="accent"><g fill="black"><path d="M99.279 18.508L83.756 2.982C82.833 2.058 81.198 2.058 80.276 2.982L70.62 12.641C69.864 10.041 67.49 8.125 64.652 8.125H6.243A6.25 6.25 0 0 0 0 14.37V60.892A6.25 6.25 0 0 0 6.243 67.135H16.259L13.254 70.141C13.244 70.15 13.235 70.162 13.225 70.17L13.17 70.225C13.092 70.302 13.032 70.389 12.968 70.473A2.4 2.4 0 0 0 12.759 70.793 2.4 2.4 0 0 0 12.613 71.097C12.601 71.128 12.58 71.155 12.57 71.187L4.807 94.471A2.464 2.464 0 0 0 7.92 97.586L31.207 89.824C31.228 89.817 31.246 89.803 31.268 89.795 31.435 89.734 31.597 89.658 31.748 89.563 31.758 89.557 31.768 89.554 31.777 89.548 31.919 89.455 32.051 89.35 32.172 89.23L54.26 67.136H64.652C68.094 67.136 70.893 64.336 70.893 60.893V50.498L85.902 35.487C86.049 35.339 86.169 35.17 86.272 34.993L99.28 21.987A2.46 2.46 0 0 0 99.279 18.508M65.971 60.893C65.971 61.622 65.379 62.214 64.652 62.214H59.182L65.971 55.422zM68.494 21.848L72.937 26.29 22.833 76.408 18.391 71.967zM4.921 60.893V14.37C4.921 13.641 5.513 13.049 6.242 13.049H64.651A1.32 1.32 0 0 1 65.97 14.37V17.318L21.174 62.214H6.243A1.323 1.323 0 0 1 4.921 60.893M11.033 91.359L15.979 76.52 25.872 86.413zM66.693 47.738S66.691 47.738 66.691 47.74L64.021 50.411 30.431 84.008 26.312 79.888 76.418 29.77 80.539 33.89zM84.1 30.205L72.055 18.166 82.016 8.204 94.059 20.247z" fill="black"></path><path d="M22.885 27.229C22.885 26.577 22.626 25.952 22.164 25.489L16.247 19.573A2.462 2.462 0 0 0 12.767 23.055L16.943 27.229 12.767 31.405A2.46 2.46 0 0 0 12.767 34.885 2.455 2.455 0 0 0 16.247 34.886L22.164 28.97A2.46 2.46 0 0 0 22.885 27.229" fill="black"></path><path d="M26.482 35.606H33.53A2.461 2.461 0 0 0 33.53 30.683H26.482A2.462 2.462 0 0 0 26.482 35.606" fill="black"></path></g></svg></g></svg></g></svg></g></svg></g></svg></g><defs><mask></mask></defs><mask><g id="SvgjsG2804"><svg viewBox="0 0 395.52 247.2" height="247.2" width="395.52"><g><svg></svg></g><g><svg viewBox="0 0 395.52 247.2" height="247.2" width="395.52"><g><path d="M55.039 247.2l36.619-63.427 0 13.071-25.093 43.463h262.39l-25.093-43.463v-13.071l36.619 63.427zM197.76 0l26.403 45.732-7.546 0-18.857-32.662-18.857 32.662-7.546 0z" fill="black" fill-rule="nonzero" stroke="none" stroke-width="1" stroke-linecap="butt" stroke-linejoin="miter" stroke-miterlimit="10" stroke-dasharray="" stroke-dashoffset="0" font-family="none" font-weight="none" font-size="none" text-anchor="none" style="mix-blend-mode: normal"></path></g><g transform="matrix(1,0,0,1,113.90633309468653,67.97999999999999)"><svg viewBox="0 0 167.70733381062692 111.24" height="111.24" width="167.70733381062692"><g><svg viewBox="0 0 168.54587047968002 111.79619999999998" height="111.24" width="167.70733381062692"><g><rect width="10.031737999679999" height="111.79619999999998" x="66.74503824000001" y="0" fill="black" opacity="1" stroke-width="0" stroke="transparent" fill-opacity="1" class="rect-yte-0" rx="1%" id="SvgjsRect2803" data-palette-color="url(#58a108ff-76a8-496b-b7b4-94054b5292ff)"></rect></g><g transform="matrix(1,0,0,1,103.03787047968001,0.2780999999999949)"><svg viewBox="0 0 65.50800000000001 111.24" height="111.24" width="65.50800000000001"><g id="SvgjsG2802"><svg viewBox="0 0 65.50800000000001 111.24" height="111.24" width="65.50800000000001" id="SvgjsSvg2801"><g><svg viewBox="0 0 65.50800000000001 111.24" height="111.24" width="65.50800000000001"><g transform="matrix(1,0,0,1,0,0)"><svg width="65.50800000000001" viewBox="2.25 -35.45 21.2 36.00000000000001" height="111.24" data-palette-color="url(#8e54c0ed-bd90-499f-af38-b94df9000779)"><g class="wordmark-text-0" data-fill-palette-color="primary" id="SvgjsG2800"><path d="M12.7 0.55L12.7 0.55Q9.03 0.55 6.28-0.68 3.53-1.9 2.25-3.25L2.25-3.25 4.8-8.5Q5.33-7.83 6.46-6.98 7.6-6.13 9.11-5.49 10.63-4.85 12.25-4.85L12.25-4.85Q14.13-4.85 15.51-5.9 16.9-6.95 16.9-9L16.9-9Q16.9-11.03 15.46-12.21 14.03-13.4 11.55-14.9L11.55-14.9Q9.53-16.13 7.58-17.51 5.63-18.9 4.34-20.91 3.05-22.93 3.05-26L3.05-26Q3.05-30.13 5.69-32.79 8.33-35.45 13.35-35.45L13.35-35.45Q15.9-35.45 17.69-34.85 19.48-34.25 20.59-33.48 21.7-32.7 22.25-32.2L22.25-32.2 19.45-27.1Q19.1-27.6 18.28-28.33 17.45-29.05 16.25-29.6 15.05-30.15 13.6-30.15L13.6-30.15Q11.58-30.15 10.56-28.99 9.55-27.83 9.55-26.25L9.55-26.25Q9.55-24.23 11.04-22.95 12.53-21.68 14.65-20.4L14.65-20.4Q17-19 19-17.59 21-16.18 22.23-14.21 23.45-12.25 23.45-9.2L23.45-9.2Q23.45-4.63 20.58-2.04 17.7 0.55 12.7 0.55Z" fill="black"></path></g></svg></g></svg></g></svg></g></svg></g><g transform="matrix(1,0,0,1,0,44.21658202919986)"><svg viewBox="0 0 40.48394400000001 23.363035941600263" height="23.363035941600263" width="40.48394400000001"><g><svg xmlns="http://www.w3.org/2000/svg" xmlns:xlink="http://www.w3.org/1999/xlink" version="1.1" x="8" y="0" viewBox="0 2.2889999999999997 100.00003478060117 95.42189798916631" enable-background="new 0 0 100 100" xml:space="preserve" id="SvgjsSvg2799" width="24.483944000000008" height="23.363035941600263" class="icon-icon-0" data-fill-palette-color="accent"><g fill="black"><path d="M99.279 18.508L83.756 2.982C82.833 2.058 81.198 2.058 80.276 2.982L70.62 12.641C69.864 10.041 67.49 8.125 64.652 8.125H6.243A6.25 6.25 0 0 0 0 14.37V60.892A6.25 6.25 0 0 0 6.243 67.135H16.259L13.254 70.141C13.244 70.15 13.235 70.162 13.225 70.17L13.17 70.225C13.092 70.302 13.032 70.389 12.968 70.473A2.4 2.4 0 0 0 12.759 70.793 2.4 2.4 0 0 0 12.613 71.097C12.601 71.128 12.58 71.155 12.57 71.187L4.807 94.471A2.464 2.464 0 0 0 7.92 97.586L31.207 89.824C31.228 89.817 31.246 89.803 31.268 89.795 31.435 89.734 31.597 89.658 31.748 89.563 31.758 89.557 31.768 89.554 31.777 89.548 31.919 89.455 32.051 89.35 32.172 89.23L54.26 67.136H64.652C68.094 67.136 70.893 64.336 70.893 60.893V50.498L85.902 35.487C86.049 35.339 86.169 35.17 86.272 34.993L99.28 21.987A2.46 2.46 0 0 0 99.279 18.508M65.971 60.893C65.971 61.622 65.379 62.214 64.652 62.214H59.182L65.971 55.422zM68.494 21.848L72.937 26.29 22.833 76.408 18.391 71.967zM4.921 60.893V14.37C4.921 13.641 5.513 13.049 6.242 13.049H64.651A1.32 1.32 0 0 1 65.97 14.37V17.318L21.174 62.214H6.243A1.323 1.323 0 0 1 4.921 60.893M11.033 91.359L15.979 76.52 25.872 86.413zM66.693 47.738S66.691 47.738 66.691 47.74L64.021 50.411 30.431 84.008 26.312 79.888 76.418 29.77 80.539 33.89zM84.1 30.205L72.055 18.166 82.016 8.204 94.059 20.247z" fill="black"></path><path d="M22.885 27.229C22.885 26.577 22.626 25.952 22.164 25.489L16.247 19.573A2.462 2.462 0 0 0 12.767 23.055L16.943 27.229 12.767 31.405A2.46 2.46 0 0 0 12.767 34.885 2.455 2.455 0 0 0 16.247 34.886L22.164 28.97A2.46 2.46 0 0 0 22.885 27.229" fill="black"></path><path d="M26.482 35.606H33.53A2.461 2.461 0 0 0 33.53 30.683H26.482A2.462 2.462 0 0 0 26.482 35.606" fill="black"></path></g></svg></g></svg></g></svg></g></svg></g></svg></g><defs><mask></mask></defs></svg><rect width="395.52" height="247.2" fill="black" stroke="none" visibility="hidden"></rect></g></mask></svg><rect width="395.52" height="247.2" fill="black" stroke="none" visibility="hidden"></rect></g></mask></svg><rect width="395.52" height="247.2" fill="black" stroke="none" visibility="hidden"></rect></g></mask></svg><rect width="395.52" height="247.2" fill="black" stroke="none" visibility="hidden"></rect></g></mask><linearGradient x1="0.054" x2="0.941" y1="0.5" y2="0.5" id="a9bbb18a-4e0a-45f7-a39e-5c93bbafe70c"><stop stop-color="#eaa79c" offset="0"></stop><stop stop-color="#f2e8cb" offset="0.498"></stop><stop stop-color="#eaa79c" offset="1"></stop></linearGradient></svg><rect width="395.52" height="247.2" fill="none" stroke="none" visibility="hidden"></rect></g></svg></g></svg>